<svg xmlns="http://www.w3.org/2000/svg" viewBox="0 0 29 29" shape-rendering="crispEdges"><rect width="100%" height="100%" fill="white"/><g fill="black"><rect x="2" y="2" width="7" height="1"/><rect x="2" y="3" width="1" height="6"/><rect x="8" y="3" width="1" height="6"/><rect x="2" y="8" width="7" height="1"/><rect x="4" y="4" width="5" height="5" fill="white"/><rect x="5" y="5" width="3" height="3" fill="black"/><rect x="20" y="2" width="7" height="1"/><rect x="20" y="3" width="1" height="6"/><rect x="26" y="3" width="1" height="6"/><rect x="20" y="8" width="7" height="1"/><rect x="22" y="4" width="3" height="3" fill="white"/><rect x="23" y="5" width="1" height="1" fill="black"/><rect x="2" y="20" width="7" height="1"/><rect x="2" y="21" width="1" height="6"/><rect x="8" y="21" width="1" height="6"/><rect x="2" y="26" width="7" height="1"/><rect x="4" y="22" width="5" height="5" fill="white"/><rect x="5" y="23" width="3" height="3" fill="black"/><rect x="10" y="2" width="1" height="1"/><rect x="11" y="2" width="1" height="1"/><rect x="12" y="2" width="1" height="1"/><rect x="15" y="2" width="1" height="1"/><rect x="10" y="3" width="1" height="1"/><rect x="11" y="3" width="1" height="1"/><rect x="12" y="3" width="1" height="1"/><rect x="14" y="3" width="1" height="1"/><rect x="16" y="3" width="1" height="1"/><rect x="18" y="3" width="1" height="1"/><rect x="10" y="4" width="1" height="1"/><rect x="12" y="4" width="1" height="1"/><rect x="13" y="4" width="1" height="1"/><rect x="15" y="4" width="1" height="1"/><rect x="17" y="4" width="1" height="1"/><rect x="10" y="5" width="1" height="1"/><rect x="13" y="5" width="1" height="1"/><rect x="14" y="5" width="1" height="1"/><rect x="15" y="5" width="1" height="1"/><rect x="18" y="5" width="1" height="1"/><rect x="11" y="6" width="1" height="1"/><rect x="12" y="6" width="1" height="1"/><rect x="13" y="6" width="1" height="1"/><rect x="16" y="6" width="1" height="1"/><rect x="18" y="6" width="1" height="1"/><rect x="10" y="7" width="1" height="1"/><rect x="13" y="7" width="1" height="1"/><rect x="15" y="7" width="1" height="1"/><rect x="18" y="7" width="1" height="1"/><rect x="10" y="8" width="1" height="1"/><rect x="12" y="8" width="1" height="1"/><rect x="14" y="8" width="1" height="1"/><rect x="16" y="8" width="1" height="1"/><rect x="18" y="8" width="1" height="1"/><rect x="11" y="9" width="1" height="1"/><rect x="14" y="9" width="1" height="1"/><rect x="15" y="9" width="1" height="1"/><rect x="17" y="9" width="1" height="1"/><rect x="18" y="9" width="1" height="1"/><rect x="2" y="10" width="1" height="1"/><rect x="5" y="10" width="1" height="1"/><rect x="6" y="10" width="1" height="1"/><rect x="7" y="10" width="1" height="1"/><rect x="8" y="10" width="1" height="1"/><rect x="9" y="10" width="1" height="1"/><rect x="10" y="10" width="1" height="1"/><rect x="16" y="10" width="1" height="1"/><rect x="17" y="10" width="1" height="1"/><rect x="19" y="10" width="1" height="1"/><rect x="22" y="10" width="1" height="1"/><rect x="24" y="10" width="1" height="1"/><rect x="25" y="10" width="1" height="1"/><rect x="26" y="10" width="1" height="1"/><rect x="5" y="11" width="1" height="1"/><rect x="10" y="11" width="1" height="1"/><rect x="12" y="11" width="1" height="1"/><rect x="14" y="11" width="1" height="1"/><rect x="16" y="11" width="1" height="1"/><rect x="17" y="11" width="1" height="1"/><rect x="21" y="11" width="1" height="1"/><rect x="22" y="11" width="1" height="1"/><rect x="23" y="11" width="1" height="1"/><rect x="24" y="11" width="1" height="1"/><rect x="25" y="11" width="1" height="1"/><rect x="2" y="12" width="1" height="1"/><rect x="4" y="12" width="1" height="1"/><rect x="6" y="12" width="1" height="1"/><rect x="8" y="12" width="1" height="1"/><rect x="10" y="12" width="1" height="1"/><rect x="12" y="12" width="1" height="1"/><rect x="13" y="12" width="1" height="1"/><rect x="17" y="12" width="1" height="1"/><rect x="19" y="12" width="1" height="1"/><rect x="20" y="12" width="1" height="1"/><rect x="22" y="12" width="1" height="1"/><rect x="23" y="12" width="1" height="1"/><rect x="26" y="12" width="1" height="1"/><rect x="4" y="13" width="1" height="1"/><rect x="5" y="13" width="1" height="1"/><rect x="7" y="13" width="1" height="1"/><rect x="10" y="13" width="1" height="1"/><rect x="11" y="13" width="1" height="1"/><rect x="12" y="13" width="1" height="1"/><rect x="13" y="13" width="1" height="1"/><rect x="16" y="13" width="1" height="1"/><rect x="17" y="13" width="1" height="1"/><rect x="20" y="13" width="1" height="1"/><rect x="22" y="13" width="1" height="1"/><rect x="23" y="13" width="1" height="1"/><rect x="24" y="13" width="1" height="1"/><rect x="25" y="13" width="1" height="1"/><rect x="26" y="13" width="1" height="1"/><rect x="3" y="14" width="1" height="1"/><rect x="4" y="14" width="1" height="1"/><rect x="5" y="14" width="1" height="1"/><rect x="7" y="14" width="1" height="1"/><rect x="8" y="14" width="1" height="1"/><rect x="9" y="14" width="1" height="1"/><rect x="10" y="14" width="1" height="1"/><rect x="12" y="14" width="1" height="1"/><rect x="13" y="14" width="1" height="1"/><rect x="14" y="14" width="1" height="1"/><rect x="18" y="14" width="1" height="1"/><rect x="20" y="14" width="1" height="1"/><rect x="21" y="14" width="1" height="1"/><rect x="26" y="14" width="1" height="1"/><rect x="2" y="15" width="1" height="1"/><rect x="4" y="15" width="1" height="1"/><rect x="6" y="15" width="1" height="1"/><rect x="11" y="15" width="1" height="1"/><rect x="14" y="15" width="1" height="1"/><rect x="16" y="15" width="1" height="1"/><rect x="17" y="15" width="1" height="1"/><rect x="19" y="15" width="1" height="1"/><rect x="22" y="15" width="1" height="1"/><rect x="25" y="15" width="1" height="1"/><rect x="2" y="16" width="1" height="1"/><rect x="3" y="16" width="1" height="1"/><rect x="4" y="16" width="1" height="1"/><rect x="5" y="16" width="1" height="1"/><rect x="7" y="16" width="1" height="1"/><rect x="8" y="16" width="1" height="1"/><rect x="9" y="16" width="1" height="1"/><rect x="12" y="16" width="1" height="1"/><rect x="15" y="16" width="1" height="1"/><rect x="16" y="16" width="1" height="1"/><rect x="17" y="16" width="1" height="1"/><rect x="20" y="16" width="1" height="1"/><rect x="22" y="16" width="1" height="1"/><rect x="23" y="16" width="1" height="1"/><rect x="24" y="16" width="1" height="1"/><rect x="25" y="16" width="1" height="1"/><rect x="26" y="16" width="1" height="1"/><rect x="2" y="17" width="1" height="1"/><rect x="4" y="17" width="1" height="1"/><rect x="5" y="17" width="1" height="1"/><rect x="11" y="17" width="1" height="1"/><rect x="12" y="17" width="1" height="1"/><rect x="13" y="17" width="1" height="1"/><rect x="16" y="17" width="1" height="1"/><rect x="18" y="17" width="1" height="1"/><rect x="19" y="17" width="1" height="1"/><rect x="21" y="17" width="1" height="1"/><rect x="23" y="17" width="1" height="1"/><rect x="24" y="17" width="1" height="1"/><rect x="26" y="17" width="1" height="1"/><rect x="2" y="18" width="1" height="1"/><rect x="5" y="18" width="1" height="1"/><rect x="6" y="18" width="1" height="1"/><rect x="7" y="18" width="1" height="1"/><rect x="8" y="18" width="1" height="1"/><rect x="10" y="18" width="1" height="1"/><rect x="11" y="18" width="1" height="1"/><rect x="12" y="18" width="1" height="1"/><rect x="14" y="18" width="1" height="1"/><rect x="15" y="18" width="1" height="1"/><rect x="16" y="18" width="1" height="1"/><rect x="18" y="18" width="1" height="1"/><rect x="19" y="18" width="1" height="1"/><rect x="20" y="18" width="1" height="1"/><rect x="21" y="18" width="1" height="1"/><rect x="22" y="18" width="1" height="1"/><rect x="24" y="18" width="1" height="1"/><rect x="25" y="18" width="1" height="1"/><rect x="10" y="19" width="1" height="1"/><rect x="12" y="19" width="1" height="1"/><rect x="14" y="19" width="1" height="1"/><rect x="15" y="19" width="1" height="1"/><rect x="17" y="19" width="1" height="1"/><rect x="18" y="19" width="1" height="1"/><rect x="22" y="19" width="1" height="1"/><rect x="24" y="19" width="1" height="1"/><rect x="25" y="19" width="1" height="1"/><rect x="2" y="20" width="1" height="1"/><rect x="3" y="20" width="1" height="1"/><rect x="4" y="20" width="1" height="1"/><rect x="5" y="20" width="1" height="1"/><rect x="6" y="20" width="1" height="1"/><rect x="7" y="20" width="1" height="1"/><rect x="8" y="20" width="1" height="1"/><rect x="10" y="20" width="1" height="1"/><rect x="12" y="20" width="1" height="1"/><rect x="13" y="20" width="1" height="1"/><rect x="14" y="20" width="1" height="1"/><rect x="18" y="20" width="1" height="1"/><rect x="20" y="20" width="1" height="1"/><rect x="22" y="20" width="1" height="1"/><rect x="26" y="20" width="1" height="1"/><rect x="2" y="21" width="1" height="1"/><rect x="8" y="21" width="1" height="1"/><rect x="10" y="21" width="1" height="1"/><rect x="14" y="21" width="1" height="1"/><rect x="15" y="21" width="1" height="1"/><rect x="16" y="21" width="1" height="1"/><rect x="17" y="21" width="1" height="1"/><rect x="18" y="21" width="1" height="1"/><rect x="22" y="21" width="1" height="1"/><rect x="2" y="22" width="1" height="1"/><rect x="4" y="22" width="1" height="1"/><rect x="5" y="22" width="1" height="1"/><rect x="6" y="22" width="1" height="1"/><rect x="8" y="22" width="1" height="1"/><rect x="10" y="22" width="1" height="1"/><rect x="11" y="22" width="1" height="1"/><rect x="12" y="22" width="1" height="1"/><rect x="16" y="22" width="1" height="1"/><rect x="17" y="22" width="1" height="1"/><rect x="18" y="22" width="1" height="1"/><rect x="19" y="22" width="1" height="1"/><rect x="20" y="22" width="1" height="1"/><rect x="21" y="22" width="1" height="1"/><rect x="22" y="22" width="1" height="1"/><rect x="2" y="23" width="1" height="1"/><rect x="4" y="23" width="1" height="1"/><rect x="5" y="23" width="1" height="1"/><rect x="6" y="23" width="1" height="1"/><rect x="8" y="23" width="1" height="1"/><rect x="10" y="23" width="1" height="1"/><rect x="11" y="23" width="1" height="1"/><rect x="13" y="23" width="1" height="1"/><rect x="16" y="23" width="1" height="1"/><rect x="18" y="23" width="1" height="1"/><rect x="19" y="23" width="1" height="1"/><rect x="20" y="23" width="1" height="1"/><rect x="25" y="23" width="1" height="1"/><rect x="26" y="23" width="1" height="1"/><rect x="2" y="24" width="1" height="1"/><rect x="4" y="24" width="1" height="1"/><rect x="5" y="24" width="1" height="1"/><rect x="6" y="24" width="1" height="1"/><rect x="8" y="24" width="1" height="1"/><rect x="11" y="24" width="1" height="1"/><rect x="12" y="24" width="1" height="1"/><rect x="13" y="24" width="1" height="1"/><rect x="14" y="24" width="1" height="1"/><rect x="16" y="24" width="1" height="1"/><rect x="22" y="24" width="1" height="1"/><rect x="23" y="24" width="1" height="1"/><rect x="24" y="24" width="1" height="1"/><rect x="25" y="24" width="1" height="1"/><rect x="26" y="24" width="1" height="1"/><rect x="2" y="25" width="1" height="1"/><rect x="8" y="25" width="1" height="1"/><rect x="13" y="25" width="1" height="1"/><rect x="14" y="25" width="1" height="1"/><rect x="16" y="25" width="1" height="1"/><rect x="17" y="25" width="1" height="1"/><rect x="19" y="25" width="1" height="1"/><rect x="20" y="25" width="1" height="1"/><rect x="21" y="25" width="1" height="1"/><rect x="22" y="25" width="1" height="1"/><rect x="24" y="25" width="1" height="1"/><rect x="25" y="25" width="1" height="1"/><rect x="26" y="25" width="1" height="1"/><rect x="2" y="26" width="7" height="1"/></g></svg>